<?xml version="1.0" encoding="UTF-8"?>
<!DOCTYPE svg PUBLIC "-//W3C//DTD SVG 1.1//EN" "http://www.w3.org/Graphics/SVG/1.1/DTD/svg11.dtd">
<!-- Creator: CorelDRAW 2019 (64-Bit) -->
<svg xmlns="http://www.w3.org/2000/svg" xml:space="preserve" width="50mm" height="20.8978mm" version="1.1" style="shape-rendering:geometricPrecision; text-rendering:geometricPrecision; image-rendering:optimizeQuality; fill-rule:evenodd; clip-rule:evenodd"
viewBox="0 0 9549.61 2140.53"
 xmlns:xlink="http://www.w3.org/1999/xlink"
 xmlns:xodm="http://www.corel.com/coreldraw/odm/2003">
 <defs>
  <style type="text/css">
   <![CDATA[
    .fil0 {fill:#1D6EBE}
   ]]>
  </style>
 </defs>
 <g id="Capa_x0020_1">
  <metadata id="CorelCorpID_0Corel-Layer"/>
  <g id="_2988925255008">
   <path class="fil0" d="M747.74 425.12l131.96 -2.9c35.46,55.13 258.16,592.31 264.31,647.66l-655.66 1.21c3.36,-59.08 222.7,-574.37 259.38,-645.96zm-747.74 1271.18l216.77 4.59 135.47 -332.8 929.83 -1.58 135.8 333.7 186.56 0.14c-3.5,-39.59 -539.11,-1443.08 -629.21,-1610.97l-340.49 -0.42 -634.74 1607.34z"/>
   <path class="fil0" d="M5065.55 776.07l-5.96 -267.22 -168.57 1.59c-6.05,169.15 -21.13,1094.65 8.56,1180.08 43.92,17.17 97.48,10.66 156.72,9.72 60.71,-553.09 -155.97,-917.18 333.34,-929.98 238.32,-6.24 339.1,75.64 337.46,304.63 -1.46,201.81 -7.22,419.71 1.5,620.08l163.24 7.14c57.23,-542.13 -152.65,-912.02 330.52,-931.58 512.27,-20.75 288.3,402.42 350.31,928.97l160.07 -0.91c12.33,-181.51 2.08,-395.41 1.85,-576.45 -0.27,-204.18 16.93,-356.33 -92.07,-497.63 -129.83,-168.32 -439.96,-209.21 -626.83,-23.71 -65.76,65.28 -68.44,105.07 -122.81,180.18 -69.27,-102.88 -108.8,-307.97 -408.27,-300.68 -233.6,5.68 -334.47,136.3 -419.06,295.77z"/>
   <path class="fil0" d="M7199.53 1169.28c-98.1,-472.72 823.81,-536.45 905.77,-122.21 45.62,230.6 -183.53,372.28 -389.6,389.31 -233.27,19.27 -478.53,-85.72 -516.17,-267.09zm-178.68 531.89l159.9 -1.17 9.49 -351.45c252.41,624.61 1086.56,431.42 1098.57,-226.17 11.09,-606.99 -657.73,-837.51 -983.12,-457.24 -58.58,68.46 -51.91,85.54 -87.18,135.6 -13.73,19.48 -13.48,18.59 -24.89,30.26l-3.1 -801.3 -169.4 -9.75 -0.27 1681.21z"/>
   <path class="fil0" d="M2270 1695.61l163.88 6.13 5.93 -344.35c47.48,-41.5 182.38,-127.91 243.67,-164.49 134.03,111.31 297.86,332.71 425.6,465.29 64.7,67.15 156.76,42.94 266.85,42.41 -28.33,-67.13 -455.6,-529.74 -540.15,-637.31 80.02,-122.61 437.15,-412.99 527.58,-551.75 -62.05,-3.16 -294.98,-11.67 -342.6,0.69 -39.27,10.19 -308.69,276.95 -363.38,328.72 -34.8,32.95 -56.62,50.12 -88.84,84.28 -48.47,51.41 -41.77,56.12 -128.59,50.81l-1.07 -953.66 -168.83 2.14 -0.05 1671.1z"/>
   <path class="fil0" d="M4408.99 1408.13l7.81 293 166.11 -1.47 2.81 -1186.49 -169.53 -5.51c-6.15,215.59 4.24,432.83 -0.91,646.73 -9.22,382.45 -738.53,387.65 -752.99,15.35 -8.35,-214.76 1.98,-444.31 -0.23,-661.4l-170.31 2.39c2.77,320.69 -68.3,907.6 126.67,1095.12 202.36,194.63 637.85,183.04 790.57,-197.74z"/>
   <path class="fil0" d="M8789.54 1699.51l109.95 2.65c-39.69,134.56 -188.74,319.84 -209.3,438.12l220.01 0.25 639.41 -1624.6 -201.6 -7.66 -355.63 853.64 -132.63 2.52 -351.91 -856.08 -177.62 0.78 459.32 1190.39z"/>
   <polygon class="fil0" points="1798.6,1694.41 1962.82,1702.23 1967.63,508.04 1798.19,511.91 "/>
   <path class="fil0" d="M1810.31 20.35c-75.5,35.07 -144.07,105.51 -83.34,223.04 38.14,73.83 153.47,97.11 237.73,62.3 192.53,-79.56 64.2,-386.86 -154.39,-285.34z"/>
  </g>
 </g>
</svg>
