<?xml version="1.0" encoding="UTF-8"?>
<!DOCTYPE svg PUBLIC "-//W3C//DTD SVG 1.1//EN" "http://www.w3.org/Graphics/SVG/1.1/DTD/svg11.dtd">
<!-- Creator: CorelDRAW 2019 (64-Bit) -->
<svg xmlns="http://www.w3.org/2000/svg" xml:space="preserve" width="14.512mm" height="9.6346mm" version="1.1" style="shape-rendering:geometricPrecision; text-rendering:geometricPrecision; image-rendering:optimizeQuality; fill-rule:evenodd; clip-rule:evenodd"
viewBox="0 0 2515.06 2290.03"
 xmlns:xlink="http://www.w3.org/1999/xlink"
 xmlns:xodm="http://www.corel.com/coreldraw/odm/2003">
 <defs>
  <style type="text/css">
   <![CDATA[
    .fil2 {fill:#06C76B}
    .fil1 {fill:#1D6EBE}
    .fil4 {fill:#9685C9}
    .fil3 {fill:#F26D5C}
    .fil0 {fill:#F7D406}
    .fil5 {fill:#FCA9CA}
   ]]>
  </style>
 </defs>
 <g id="Capa_x0020_1">
  <metadata id="CorelCorpID_0Corel-Layer"/>
  <g id="_2988819761952">
   <path class="fil0" d="M1197.93 1162.07l-2.1 12.82c5.92,62.71 41.03,99.45 38.71,172.18l12.68 15.85c5.04,8.52 2.93,-0.31 13.81,26.2 23.99,58.41 90.82,328.01 123.71,351.06 3.37,1.48 8.61,-0.88 10.59,3.07 1.96,3.91 7.91,2.32 10.63,2.56 26.74,2.39 -8.42,17.4 71.67,-10.09 103.77,-35.62 227.58,-58.51 268.87,-87.08 -2.27,-25.54 -182.49,-515.88 -217.06,-542.53 -149.06,7.35 -211.03,48.98 -331.53,55.96z"/>
   <path class="fil1" d="M878.93 1189.36l0.92 0.99 -110.79 535.95 388.13 57.26 77.35 -436.49c2.33,-72.72 -32.79,-109.47 -38.71,-172.18l-316.9 14.46z"/>
   <path class="fil2" d="M1427.78 808.13c4.46,40.56 32.79,86.73 47.51,134.29 12.66,40.88 16.53,44.58 25.62,74.6 16.67,55.1 -4.88,30.32 29.23,67.69 69.76,3.02 328.13,-68.32 419.34,-88.01l-44.31 -263.29 -477.4 74.72z"/>
   <path class="fil3" d="M1100.98 859.08c-7.26,54.09 17.07,100.94 35.15,152.91 17.12,49.2 27.53,115.8 61.81,150.08 120.5,-6.98 182.47,-48.61 331.53,-55.96l0.68 -21.4c-34.11,-37.37 -12.56,-12.59 -29.23,-67.69 -9.09,-30.03 -12.96,-33.72 -25.62,-74.6 -14.73,-47.55 -43.06,-93.72 -47.51,-134.29l-13.77 -7.41c-80.58,14.86 -250.9,15.46 -313.03,58.36z"/>
   <path class="fil0" d="M803.13 903.72c-64.83,3.8 -278.8,5.73 -286.87,75.06 -2.23,19.12 -1.74,9.41 0.03,29.51l36.84 197.95 326.71 -15.89 -0.92 -0.99c16.88,-58.46 54.06,-234.81 58.66,-294.78l-134.45 9.14z"/>
   <path class="fil4" d="M951.18 865.18c22.12,14.15 -5.54,5.1 22.84,7.37 5.08,0.41 31.06,-1.72 38.53,-2.88 36.5,-5.68 46.53,-11.71 88.43,-10.59 62.12,-42.9 232.45,-43.5 313.03,-58.36l-87.51 -234.73 -324.51 35.29 -50.8 263.89z"/>
   <path class="fil5" d="M951.18 865.18c-50.95,25 -72.54,7.15 -130.34,29.69l-17.71 8.85 134.45 -9.14c-4.6,59.97 -41.78,236.33 -58.66,294.78l316.9 -14.46 2.1 -12.82c-34.28,-34.28 -44.68,-100.88 -61.81,-150.08 -18.08,-51.97 -42.41,-98.82 -35.15,-152.91 -41.9,-1.12 -51.93,4.9 -88.43,10.59 -7.47,1.16 -33.45,3.29 -38.53,2.88 -28.37,-2.27 -0.72,6.77 -22.84,-7.37z"/>
   <path class="fil0" d="M1152.86 324.38l104.32 9.92c37.14,-67.89 34.45,-242.55 22.87,-331.63 -217.26,-7.32 -162.25,-23.23 -127.19,321.71z"/>
   <path class="fil2" d="M278.27 427.92c52,60.7 112,90.71 164.59,131.02 79.66,61.06 92.54,98.74 181.24,15.47 -20.27,-56.65 -67.46,-86.26 -107.05,-126.19 -29.92,-30.18 -94.56,-100.84 -126.32,-118.25 -49.31,17.91 -92.49,65.21 -112.46,97.95z"/>
   <path class="fil4" d="M1830.04 501.16l49.98 76.11c51.38,-14.18 254.71,-183.01 279.58,-222.6 -41.4,-37.99 -63.03,-68.67 -108.67,-99.39 -33.12,22.54 -197.59,204.93 -220.88,245.87z"/>
   <path class="fil1" d="M1880.3 1717.69c23,35.1 214.49,232.17 243.87,250.46 35.25,-17.78 88.8,-72.51 112.47,-99.77 -27.01,-39.03 -237.12,-188.68 -271.16,-201.08l-85.17 50.39z"/>
   <polygon class="fil4" points="1228.13,2288.63 1392.86,2290.03 1361.62,1971.51 1244.81,1949.41 "/>
   <path class="fil0" d="M356.41 1941.62c21.74,29.73 70.24,72.71 107.56,88.51 37.23,-17.75 202.56,-201.03 218.48,-235l-55.04 -79.37c-36.22,16.73 -252.98,181.47 -271,225.86z"/>
   <polygon class="fil3" points="0.21,1269.65 349.6,1241.55 370.06,1137.25 -0,1120.3 "/>
   <path class="fil5" d="M2165.02 1053.03c-10.98,49.91 -19.3,54.03 -14.32,104.1l361.34 15.52 3.03 -147.75 -350.05 28.14z"/>
  </g>
 </g>
</svg>
